<svg xmlns="http://www.w3.org/2000/svg" width="24.002" height="24" viewBox="0 0 24.002 24">
  <g id="CardFocused" transform="translate(-2.499 4)">
    <rect id="Rectangle_1" data-name="Rectangle 1" width="24" height="24" transform="translate(2.5 -4)" fill="rgba(255,255,255,0)"/>
    <g id="Group_3" data-name="Group 3" transform="translate(2.5 -91.333)">
      <g id="Group_1" data-name="Group 1" transform="translate(0 98.333)">
        <path id="Path_1" data-name="Path 1" d="M23.5,213.333H.5a.474.474,0,0,0-.5.5v7.053A2.485,2.485,0,0,0,2.5,223.4h19a2.485,2.485,0,0,0,2.5-2.519v-7.053a.474.474,0,0,0-.5-.5Zm-20,4.03h4a.5.5,0,0,1,0,1.008h-4a.5.5,0,0,1,0-1.008Zm7,3.023h-7a.5.5,0,0,1,0-1.008h7a.5.5,0,1,1,0,1.008Zm8.5,0a1.68,1.68,0,0,1-1-.3,1.68,1.68,0,0,1-1,.3,2.015,2.015,0,1,1,0-4.03,1.68,1.68,0,0,1,1,.3,1.68,1.68,0,0,1,1-.3,2.015,2.015,0,1,1,0,4.03Z" transform="translate(0 -213.333)" fill="#01d167"/>
      </g>
      <g id="Group_2" data-name="Group 2" transform="translate(0 90.333)">
        <path id="Path_2" data-name="Path 2" d="M21.5,85.333H2.5c-1.4,0-2.5,1.378-2.5,3.132v1.253c0,.376.2.626.5.626h23c.3,0,.5-.251.5-.626V88.465C24,86.711,22.9,85.333,21.5,85.333Z" transform="translate(0 -85.333)" fill="#01d167"/>
      </g>
    </g>
  </g>
</svg>
