<svg xmlns="http://www.w3.org/2000/svg" width="32" height="32" viewBox="0 0 32 32"><defs><style>.a{fill:#325baf;}.b{fill:#9ac0fa;}.b,.c{stroke:#325baf;stroke-width:0.1px;}.c{fill:#f1f3f4;stroke-linecap:round;stroke-linejoin:round;}</style></defs><g transform="translate(-0.094)"><circle class="a" cx="16" cy="16" r="16" transform="translate(0.094)"/><g transform="translate(9.596 7.899)"><path class="b" d="M8.589,5.246l1.431-1.4v6.394a1.149,1.149,0,0,0,2.3,0V3.844l1.43,1.4a1.166,1.166,0,0,0,1.625,0,1.11,1.11,0,0,0,0-1.592L11.981.33a1.166,1.166,0,0,0-1.625,0L6.964,3.653a1.11,1.11,0,0,0,0,1.592A1.167,1.167,0,0,0,8.589,5.246Z" transform="translate(-4.635 0)"/><path class="c" d="M17.954,11.754a2.757,2.757,0,0,1-2.773,2.734H7.66a2.757,2.757,0,0,1-2.773-2.734,1.142,1.142,0,0,1,2.284,0,.487.487,0,0,0,.489.482h7.521a.487.487,0,0,0,.489-.482,1.142,1.142,0,0,1,2.284,0Z" transform="translate(-4.887 1.768)"/></g></g></svg>