<svg xmlns="http://www.w3.org/2000/svg" width="16" height="13.398" viewBox="0 0 16 13.398"><defs><style>.a{fill:#25345f;}</style></defs><g transform="translate(0 -90.922)"><g transform="translate(0 90.922)"><path class="a" d="M40.078,166.741a.2.2,0,0,0-.048-.141l-1.546-1.758a.2.2,0,0,0-.275-.018,8.041,8.041,0,0,0-1.752,2.188.2.2,0,0,0,.078.265l2.054,1.123a.195.195,0,0,0,.265-.078,5.316,5.316,0,0,1,1.159-1.447A.194.194,0,0,0,40.078,166.741Z" transform="translate(-35.476 -162.872)"/><path class="a" d="M159.953,96.439a.195.195,0,0,0,.264.081,5.254,5.254,0,0,1,1.761-.566.2.2,0,0,0,.167-.22l-.315-2.32a.2.2,0,0,0-.22-.167,7.975,7.975,0,0,0-2.673.86.2.2,0,0,0-.081.264Z" transform="translate(-154.686 -93.211)"/><path class="a" d="M2.779,311.369l-2.26-.613a.2.2,0,0,0-.239.137A8.059,8.059,0,0,0,0,313c0,.122,0,.245.009.375a.2.2,0,0,0,.195.186H.213l2.339-.108a.2.2,0,0,0,.186-.2c0-.088-.006-.169-.006-.249a5.326,5.326,0,0,1,.185-1.394A.2.2,0,0,0,2.779,311.369Z" transform="translate(0 -305.03)"/><path class="a" d="M322.211,92.679a7.979,7.979,0,0,0-2.7-.756.2.2,0,0,0-.213.175l-.226,2.33a.2.2,0,0,0,.175.213,5.256,5.256,0,0,1,1.781.5.2.2,0,0,0,.26-.091L322.3,92.94A.2.2,0,0,0,322.211,92.679Z" transform="translate(-310.736 -91.922)"/><path class="a" d="M434.27,159.673a.2.2,0,0,0-.022-.148,8.045,8.045,0,0,0-1.835-2.119.195.195,0,0,0-.274.028l-1.477,1.816a.2.2,0,0,0,.028.274,5.318,5.318,0,0,1,1.214,1.4.2.2,0,0,0,.268.067l2.01-1.2A.2.2,0,0,0,434.27,159.673Z" transform="translate(-419.382 -155.653)"/><path class="a" d="M501.095,299.866a.2.2,0,0,0-.245-.128l-2.234.7a.2.2,0,0,0-.128.244,5.31,5.31,0,0,1,.242,1.589c0,.08,0,.161-.006.249a.2.2,0,0,0,.186.2l2.339.108h.009a.2.2,0,0,0,.195-.186c.006-.13.009-.253.009-.375A8.038,8.038,0,0,0,501.095,299.866Z" transform="translate(-485.462 -294.3)"/><path class="a" d="M3.573,1.895l-.1,0L.3.028A.2.2,0,0,0,.024.3l1.729,3.24a1.863,1.863,0,0,0-.01.189,1.83,1.83,0,1,0,1.83-1.83Z" transform="matrix(0.985, 0.174, -0.174, 0.985, 5.838, 6.989)"/></g></g></svg>